#!OML:ASF X:\für Bonn\!DataBase\2005_08_10_Bjorn_Final\c3d\bjorn.ASF
:FULLY-SPECIFIED
:DEGREES
137
root 2.11375 18.8332 2.03875 -181.792 -10.4651 176.215
lowerback 3.04169 -0.648591 -2.01568
upperback 10.8661 -1.98493 -1.22343
thorax 9.80069 -1.60282 -0.375856
lowerneck -5.29807 5.84011 -6.18773
upperneck 7.76295 8.55564 -10.698
head 3.7425 3.27077 -2.09841
rclavicle 1.12189e-014 -6.70898e-016
rhumerus -40.0057 -4.36041 -78.1598
rradius 42.8507
rwrist 0.0561683
rhand -12.4032 20.2594
rfingers 7.12502
rthumb 13.6684 -9.2718
lclavicle 1.12189e-014 -6.70898e-016
lhumerus -45.4153 -44.538 85.5446
lradius 71.6591
lwrist 5.47393
lhand -49.4766 -24.3374
lfingers 7.12502
lthumb -22.0866 4.42124
rfemur -19.2681 -6.8158 14.7471
rtibia 44.2527
rfoot -17.9476 11.9785
rtoes -10.0489
lfemur -7.90865 7.36809 -19.9017
ltibia 51.827
lfoot -18.9772 7.91723
ltoes -20.4453
138
root 2.11233 18.8406 2.10088 -181.113 -11.2776 176.108
lowerback 2.96816 -0.836364 -2.19615
upperback 10.7754 -2.2009 -1.285
thorax 9.74952 -1.70874 -0.350391
lowerneck -5.56174 5.66663 -6.36699
upperneck 7.76499 8.36303 -10.3661
head 3.75891 3.18806 -1.95654
rclavicle 3.24267e-014 6.70898e-015
rhumerus -40.6939 -5.54221 -78.473
rradius 42.8729
rwrist 0.00144846
rhand -12.3148 20.1911
rfingers 7.12502
rthumb 13.7537 -9.33435
lclavicle 3.24267e-014 6.70898e-015
lhumerus -45.4313 -44.7002 85.8548
lradius 70.6765
lwrist 5.19752
lhand -49.6379 -24.8627
lfingers 7.12502
lthumb -22.2415 3.87753
rfemur -20.1264 -6.80713 14.6482
rtibia 44.3651
rfoot -18.0006 11.2056
rtoes -10.9411
lfemur -6.91263 6.99133 -19.6107
ltibia 50.9341
lfoot -18.9168 7.96399
ltoes -19.7313
139
root 2.11079 18.8464 2.16468 -180.46 -12.1256 175.999
lowerback 2.9291 -1.03902 -2.38375
upperback 10.7025 -2.44429 -1.3251
thorax 9.70112 -1.83203 -0.299579
lowerneck -5.84171 5.50234 -6.54738
upperneck 7.76129 8.18497 -10.0449
head 3.77903 3.11182 -1.8177
rclavicle -1.54058e-015 2.5842e-015
rhumerus -41.2264 -6.66188 -78.7732
rradius 42.6903
rwrist -0.0815897
rhand -12.3108 20.1485
rfingers 7.12502
rthumb 13.7575 -9.37664
lclavicle -1.54058e-015 2.5842e-015
lhumerus -45.3374 -44.82 86.1419
lradius 69.6433
lwrist 4.89258
lhand -49.7621 -25.3712
lfingers 7.12502
lthumb -22.3608 3.35474
rfemur -20.9498 -6.73543 14.5395
rtibia 44.4846
rfoot -18.0908 10.3345
rtoes -11.7893
lfemur -6.00698 6.5896 -19.3254
ltibia 50.048
lfoot -18.7044 8.00469
ltoes -19.6543
140
root 2.10991 18.8493 2.23138 -179.826 -13.0103 175.89
lowerback 2.90584 -1.23918 -2.54979
upperback 10.6666 -2.69262 -1.37214
thorax 9.68544 -1.95907 -0.270109
lowerneck -6.13485 5.31742 -6.72246
upperneck 7.71861 7.97807 -9.69859
head 3.78749 3.02689 -1.67271
rclavicle -2.33075e-014 -2.98177e-015
rhumerus -41.6647 -7.84286 -79.077
rradius 42.4865
rwrist -0.169631
rhand -12.2644 20.1203
rfingers 7.12502
rthumb 13.8022 -9.40183
lclavicle -2.33075e-014 -2.98177e-015
lhumerus -45.079 -45.0246 86.2939
lradius 68.5762
lwrist 4.61087
lhand -49.7319 -25.904
lfingers 7.12502
lthumb -22.3317 2.82538
rfemur -21.7513 -6.73958 14.4239
rtibia 44.6171
rfoot -18.18 9.49367
rtoes -12.7616
lfemur -5.20739 6.21254 -19.0225
ltibia 49.1917
lfoot -18.3592 7.84289
ltoes -19.5681
